Patient4_TMGait_0pt7_01_left_42_EMG.mot
version=1
nRows=16
nColumns=33
inDegrees=no
endheader
time	1LAddLong	2LGlutMax	3LGlutMed	4LIliopsoas	5LSemiMemb	6LBicFemLong	7LRecFem	8LVastMed	9LVastLat	10LGasMed	11LTibAnt	12lTibPost	13LPeroneusLong	14LSol	15LExtDigLong	16LFlexDigLong	17RAddLong	18RGlutMax	19RGlutMed	20RIliopsoas	21RSemiMemb	22RBicFemLong	23RRecFem	24RVastMed	25RVastLat	26RGasMed	27RTibAnt	28RTibPost	29RPeroneusLong	30RSol	31RExtDigLong	32RFlexDigLong
48.62	0.010071	0.68771	-0.001984	0.013428	-0.008698	0.016327	0.15411	0.014954	0.27206	-0.046844	0.029297	0.00885	0.069427	-0.061493	-0.16083	0.006104	0.023956	-0.50186	0.25177	-0.077972	0.19547	-0.21469	-0.076141	0.13214	0.012665	0.020294	-0.3714	0.24185	0.30731	-0.41473	-0.002136	-0.01236
48.621	0.011444	0.76416	-0.023193	0.019379	-0.010376	0.014038	0.14557	0.012817	0.27313	-0.027008	0.019379	0.001373	0.063629	-0.057678	-0.05127	0.001068	0.044861	-0.42129	0.14832	-0.014648	-0.046082	-0.2301	-0.15961	0.064545	0.063324	0.044708	-0.40726	0.1709	0.17777	-0.9108	0.000916	-0.018005
48.622	0.011902	0.72342	-0.029449	0.003967	-0.00885	-0.001831	0.13794	0.015411	0.27481	-0.013123	-0.00824	0.011139	0.05249	-0.062866	-0.10117	-0.00061	0.04837	-0.35599	0.53162	0.013275	-0.28748	-0.12253	-0.21469	-0.062714	0.00061	0.054932	-0.19409	0.21118	-0.31815	-0.70221	-0.001526	-0.013428
48.623	0.018158	0.71945	-0.026703	0.005798	-0.00351	0.005951	0.15335	0.015106	0.25711	-0.03067	-0.014954	0.006409	0.05188	-0.092926	0.18463	0.007324	0.017395	-0.27542	0.30243	0.061493	-0.36789	-0.16251	-0.19394	-0.11871	-0.064697	0.094299	0.1033	0.08194	-0.33371	0.13519	-0.001678	-0.004883
48.624	0.014496	0.62134	-0.030212	-0.003815	-0.003357	0.010071	0.13397	0.012207	0.26062	-0.032501	0.005951	0.006256	0.008545	-0.17532	0.68268	-0.000916	0.007782	-0.18036	0.11627	0.061188	0.1857	-0.22675	-0.10391	-0.27985	-0.10437	0.050049	0.31189	-0.04776	-0.31876	-0.026093	-0.002594	-0.006104
48.625	0.00473	0.62897	-0.039978	0.00473	-0.005951	-0.021057	0.13504	0.014801	0.25864	-0.013123	0.039368	0.006714	-0.006104	-0.23025	0.14954	0.006409	-0.011139	-0.010223	0.32486	0.058594	0.063934	-0.24094	0.055847	-0.24017	-0.089569	0.057678	0.4837	0.023041	-0.46738	0.010834	0.00946	-0.000916
48.626	0.010071	0.63431	-0.056915	0.004425	-0.008698	-0.027008	0.11002	0.009155	0.26489	-0.014648	0.035553	0.006409	0.052185	-0.16449	-0.26672	0.003662	-0.032806	0.10361	0.27237	0.008698	0.023956	-0.18356	0.033722	-0.034943	-0.018616	0.11734	0.46524	-0.040436	-0.448	0.45731	-0.001831	-0.003357
48.627	0.014191	0.60028	-0.05127	-0.005951	-0.00412	-0.018463	0.097961	0.012207	0.24063	-0.005341	0.011139	0.006561	0.067444	-0.11047	-0.1181	0.002136	-0.028839	0.13107	0.19989	-0.016174	-0.14877	-0.18662	-0.003662	-0.001678	-0.021057	0.077515	0.1535	-0.12161	-0.233	0.20355	-0.004578	-0.002441
48.628	0.011749	0.55008	-0.076904	-0.006866	-0.003662	-0.018158	0.078888	0.007782	0.23285	-0.005646	0.010071	0.004578	0.061951	-0.10315	-0.048523	-0.000153	-0.036316	0.1239	0.11643	-0.03952	-0.16953	-0.12619	-0.018463	-0.044556	-0.064392	-0.05127	-0.38605	-0.036469	-0.043793	-0.083618	-0.003357	-0.002594
48.629	0.015717	0.55237	-0.087433	-0.001984	-0.020142	-0.011444	0.063629	0.008087	0.23895	-0.016479	0.016632	0.009308	0.019379	-0.1738	-0.044403	0.001984	-0.050964	0.052032	-0.10574	-0.093079	-0.030823	-0.049133	0.035553	-0.074921	-0.055084	-0.13123	-0.61447	0.01297	0.14755	-0.43732	-0.002441	0.002594
48.63	0.011902	0.4982	-0.080566	0.007629	-0.009003	-0.017853	0.054932	0.014038	0.2298	-0.087433	0.027008	0.002441	-0.002136	-0.18478	0.006104	0.022888	-0.024719	0.046387	-0.12802	-0.047607	0.12466	0.034943	0.11688	-0.10132	-0.056915	-0.10559	-0.6308	0.005188	0.46692	-0.495	-0.002747	0.003052
48.631	0.011292	0.47165	-0.053406	0.013428	-0.016785	-0.027771	0.034637	0.013733	0.22873	-0.16693	0.043182	0.005798	0.011902	-0.081177	0.043488	0.008087	-0.014038	0.091858	0.16647	0.065002	0.10422	0.086365	0.13718	-0.067291	-0.043945	-0.079041	-0.29297	0.002289	0.41885	0.00885	-0.003967	-0.015106
48.632	0.002747	0.4657	-0.005951	-0.001221	-0.014343	-0.019379	0.023193	0.011597	0.22781	-0.12741	0.056763	0.003204	0.04776	-0.11093	0.075684	0.024567	-0.011902	0.043488	0.27496	0.047913	-0.070953	0.065002	0.16113	0.076752	-0.038452	-0.12543	0.063782	0.051422	0.30151	-0.25009	-0.002441	-0.010681
48.633	0.00473	0.44556	0.031738	-0.006561	-0.016479	-0.03006	0.001526	0.004425	0.22064	-0.029144	0.04364	0.006104	0.057068	-0.1947	0.080414	0.020752	-0.01358	0.014191	0.12192	-0.005493	0.084991	0.010223	0.2063	0.066986	-0.061646	-0.068359	0.52353	-0.033569	0.28702	-0.56274	-0.00351	-0.012207
48.634	0.006866	0.41107	0.012817	0.01709	-0.018005	-0.031586	-0.009308	0.009003	0.22201	0.01297	-0.024109	-0.000763	0.086212	-0.066223	0.18005	0.00885	-0.030365	0.041962	0.11643	0.045776	0.14587	-0.021362	0.27451	0.11276	-0.07309	-0.038452	0.42007	-0.082245	0.17853	-0.39703	-0.003662	-0.002136
48.635	0.005188	0.43076	0.00885	0.004425	-0.016479	-0.020142	-0.017395	0.006714	0.21774	0.025787	-0.028229	0.004425	0.10483	0.10437	0.29694	0.031281	-0.006561	-0.026398	-0.18204	0.037079	0.10101	0.026245	0.30243	-0.055084	-0.057526	-0.10117	0.11734	-0.12878	0.10971	0.07782	-0.001221	0.00885
